<?xml version="1.0" encoding="utf-8"?>
<!-- Generator: Adobe Illustrator 21.1.0, SVG Export Plug-In . SVG Version: 6.00 Build 0)  -->
<svg version="1.1" id="Layer_1" xmlns="http://www.w3.org/2000/svg" xmlns:xlink="http://www.w3.org/1999/xlink" x="0px" y="0px"
	 viewBox="0 0 228.7 39.1" style="enable-background:new 0 0 228.7 39.1;" xml:space="preserve">
<style type="text/css">
	.st0{fill:#FFFFFF;}
	.st1{enable-background:new    ;}
</style>
<rect x="200.2" y="0.3" class="st0" width="0.9" height="38.5"/>
<g class="st1">
	<path class="st0" d="M68.6,31c0,0.5-0.2,0.9-0.5,1.2c-0.3,0.3-0.8,0.5-1.3,0.5c-0.7,0-1.2-0.3-1.6-0.9l-6.2-10h-0.7h-4.6v9
		c0,0.5-0.2,1-0.5,1.3c-0.3,0.4-0.8,0.5-1.4,0.5c-0.5,0-1-0.2-1.3-0.5c-0.4-0.4-0.5-0.8-0.5-1.3V6.4c0-0.6,0.2-1,0.5-1.4
		c0.4-0.3,0.8-0.5,1.3-0.5h6.5c1.8,0,3.4,0.4,4.8,1.1c1.4,0.7,2.5,1.8,3.3,3.1c0.8,1.3,1.2,2.9,1.2,4.6c0,1.7-0.4,3.2-1.3,4.6
		c-0.9,1.3-2,2.3-3.5,3l5.5,8.9C68.5,30.2,68.6,30.6,68.6,31z M58.3,18.4c1.6,0,3-0.5,4-1.4c1.1-0.9,1.6-2.1,1.6-3.6
		c0-1.6-0.5-2.9-1.6-3.9c-1.1-1-2.4-1.5-4-1.5h-4.6v10.4H58.3z"/>
</g>
<g class="st1">
	<path class="st0" d="M88.4,23.6c-0.3,0.3-0.7,0.5-1.2,0.5H73.5c0.3,1.7,1,3,2.3,4.1c1.3,1,2.8,1.6,4.6,1.6c0.7,0,1.5-0.1,2.3-0.4
		c0.8-0.3,1.4-0.6,1.9-1c0.3-0.3,0.7-0.4,1.2-0.4c0.5,0,0.8,0.1,1.1,0.4c0.4,0.4,0.7,0.8,0.7,1.2c0,0.4-0.2,0.8-0.6,1.1
		c-0.8,0.7-1.8,1.2-3.1,1.6c-1.2,0.4-2.4,0.6-3.5,0.6c-2,0-3.7-0.4-5.3-1.3c-1.6-0.9-2.8-2-3.7-3.6c-0.9-1.5-1.3-3.2-1.3-5.2
		c0-1.9,0.4-3.7,1.2-5.2c0.8-1.5,2-2.7,3.5-3.6c1.5-0.9,3.2-1.3,5-1.3c1.9,0,3.5,0.4,4.8,1.2c1.3,0.8,2.4,2,3.1,3.4
		c0.7,1.5,1.1,3.2,1.1,5.1C88.9,23,88.8,23.3,88.4,23.6z M75.6,17.3c-1.1,1-1.8,2.3-2.1,3.9h12c-0.2-1.6-0.8-2.9-1.8-3.9
		c-1-1-2.3-1.4-3.9-1.4C78.2,15.9,76.7,16.4,75.6,17.3z"/>
</g>
<g class="st1">
	<path class="st0" d="M110.7,5c0.3,0.3,0.5,0.8,0.5,1.3v16.5c0,1.9-0.4,3.6-1.3,5.1c-0.9,1.5-2.1,2.7-3.6,3.6
		c-1.5,0.9-3.2,1.3-5,1.3c-1.9,0-3.5-0.4-5.1-1.3c-1.5-0.9-2.7-2.1-3.6-3.6c-0.9-1.5-1.3-3.2-1.3-5.1c0-1.9,0.4-3.6,1.2-5.1
		c0.8-1.5,1.9-2.7,3.3-3.6c1.4-0.9,3-1.3,4.7-1.3c1.4,0,2.7,0.3,3.9,0.9c1.2,0.6,2.2,1.4,3.1,2.4V6.3c0-0.6,0.2-1,0.5-1.3
		c0.3-0.3,0.8-0.5,1.3-0.5C109.9,4.5,110.3,4.7,110.7,5z M104.5,28.7c1-0.6,1.7-1.4,2.3-2.4c0.6-1,0.8-2.2,0.8-3.5
		c0-1.3-0.3-2.4-0.8-3.5c-0.6-1-1.3-1.8-2.3-2.4c-1-0.6-2.1-0.9-3.3-0.9c-1.2,0-2.3,0.3-3.3,0.9c-1,0.6-1.7,1.4-2.3,2.4
		c-0.6,1-0.8,2.2-0.8,3.5c0,1.3,0.3,2.4,0.8,3.5c0.6,1,1.3,1.8,2.3,2.4c1,0.6,2.1,0.9,3.3,0.9C102.5,29.6,103.5,29.3,104.5,28.7z"/>
</g>
<g class="st1">
	<path class="st0" d="M115.4,9c-0.5-0.5-0.7-1-0.7-1.7c0-0.7,0.2-1.2,0.7-1.7c0.5-0.5,1-0.7,1.7-0.7c0.7,0,1.2,0.2,1.7,0.7
		c0.5,0.5,0.7,1,0.7,1.7c0,0.7-0.2,1.2-0.7,1.7c-0.5,0.5-1,0.7-1.7,0.7C116.4,9.7,115.9,9.5,115.4,9z M115.8,32.2
		c-0.3-0.3-0.5-0.8-0.5-1.3V14.8c0-0.6,0.2-1,0.5-1.3c0.3-0.3,0.8-0.5,1.3-0.5c0.6,0,1,0.2,1.3,0.5c0.3,0.3,0.5,0.8,0.5,1.3v16.1
		c0,0.5-0.2,1-0.5,1.3c-0.3,0.3-0.8,0.5-1.3,0.5C116.6,32.7,116.1,32.5,115.8,32.2z"/>
</g>
<g class="st1">
	<path class="st0" d="M136,13.3c0.7,0.4,1.1,0.9,1.1,1.4c0,0.2,0,0.3,0,0.4c-0.2,0.8-0.7,1.2-1.4,1.2c-0.1,0-0.3,0-0.5-0.1
		c-1-0.2-1.7-0.3-2.3-0.3c-1.7,0-3.1,0.4-4.2,1.2c-1.1,0.8-1.6,1.9-1.6,3.2v10.6c0,0.6-0.2,1-0.5,1.3c-0.3,0.3-0.8,0.5-1.4,0.5
		c-0.6,0-1-0.2-1.3-0.5c-0.3-0.3-0.5-0.8-0.5-1.4V14.7c0-0.6,0.2-1,0.5-1.3c0.3-0.3,0.8-0.5,1.3-0.5c1.2,0,1.8,0.6,1.8,1.8v0.7
		c0.7-0.8,1.6-1.5,2.7-2c1.1-0.5,2.2-0.7,3.4-0.7C134.2,12.7,135.2,12.9,136,13.3z"/>
</g>
<g class="st1">
	<path class="st0" d="M156.2,23.6c-0.3,0.3-0.7,0.5-1.2,0.5h-13.7c0.3,1.7,1,3,2.3,4.1c1.3,1,2.8,1.6,4.6,1.6c0.7,0,1.5-0.1,2.3-0.4
		c0.8-0.3,1.4-0.6,1.9-1c0.3-0.3,0.7-0.4,1.2-0.4c0.5,0,0.8,0.1,1.1,0.4c0.4,0.4,0.7,0.8,0.7,1.2c0,0.4-0.2,0.8-0.6,1.1
		c-0.8,0.7-1.8,1.2-3.1,1.6c-1.2,0.4-2.4,0.6-3.5,0.6c-2,0-3.7-0.4-5.3-1.3c-1.6-0.9-2.8-2-3.7-3.6c-0.9-1.5-1.3-3.2-1.3-5.2
		c0-1.9,0.4-3.7,1.2-5.2c0.8-1.5,2-2.7,3.5-3.6c1.5-0.9,3.2-1.3,5-1.3c1.9,0,3.5,0.4,4.8,1.2c1.3,0.8,2.4,2,3.1,3.4
		c0.7,1.5,1.1,3.2,1.1,5.1C156.7,23,156.6,23.3,156.2,23.6z M143.4,17.3c-1.1,1-1.8,2.3-2.1,3.9h12c-0.2-1.6-0.8-2.9-1.8-3.9
		c-1-1-2.3-1.4-3.9-1.4C146,15.9,144.5,16.4,143.4,17.3z"/>
</g>
<g class="st1">
	<path class="st0" d="M163.9,31.5c-1.5-0.9-2.7-2.1-3.6-3.6c-0.9-1.5-1.3-3.2-1.3-5.1c0-1.9,0.4-3.7,1.2-5.2c0.8-1.5,2-2.7,3.5-3.6
		c1.5-0.9,3.2-1.3,5.1-1.3c2.8,0,5.2,1.1,7.1,3.3c0.2,0.3,0.4,0.6,0.4,0.9c0,0.5-0.3,1-0.8,1.3c-0.2,0.2-0.5,0.3-0.8,0.3
		c-0.6,0-1-0.2-1.4-0.7c-0.6-0.7-1.3-1.1-2-1.4c-0.7-0.3-1.5-0.5-2.4-0.5c-1.9,0-3.4,0.6-4.5,1.9c-1.2,1.2-1.7,2.9-1.7,4.9
		c0,1.3,0.3,2.5,0.8,3.5c0.5,1,1.3,1.8,2.3,2.4c1,0.6,2.1,0.9,3.3,0.9c1.6,0,3-0.4,4-1.3c0.5-0.3,0.9-0.5,1.3-0.5
		c0.3,0,0.7,0.1,0.9,0.3c0.5,0.4,0.7,0.8,0.7,1.3c0,0.4-0.1,0.7-0.4,1c-1.7,1.6-3.9,2.4-6.5,2.4C167.2,32.8,165.4,32.4,163.9,31.5z"
		/>
</g>
<g class="st1">
	<path class="st0" d="M190.5,29.6c0.3,0.3,0.5,0.8,0.5,1.3c0,0.5-0.2,1-0.6,1.3c-0.4,0.3-0.9,0.5-1.5,0.5h-0.7
		c-1.2,0-2.3-0.3-3.2-0.9c-1-0.6-1.7-1.5-2.3-2.5c-0.6-1.1-0.8-2.3-0.8-3.6v-8.9h-1.7c-0.5,0-0.9-0.1-1.2-0.4
		c-0.3-0.3-0.5-0.7-0.5-1.1c0-0.5,0.2-0.9,0.5-1.2c0.3-0.3,0.7-0.4,1.2-0.4h1.7V8.5c0-0.5,0.2-1,0.5-1.3c0.3-0.3,0.8-0.5,1.3-0.5
		c0.5,0,1,0.2,1.3,0.5c0.3,0.3,0.5,0.8,0.5,1.3v5.2h3.1c0.5,0,0.9,0.1,1.2,0.4c0.3,0.3,0.5,0.7,0.5,1.2c0,0.4-0.2,0.8-0.5,1.1
		c-0.3,0.3-0.7,0.4-1.2,0.4h-3.1v8.9c0,1,0.3,1.8,0.8,2.4c0.5,0.7,1.2,1,2,1h1.2C189.9,29.1,190.2,29.3,190.5,29.6z"/>
</g>
<g class="st1">
	<path class="st0" d="M226.3,16.4c0.3,0,0.5,0.3,0.5,0.6s-0.2,0.6-0.5,0.6h-16.2c-0.3,0-0.5-0.3-0.5-0.6c0-0.3,0.2-0.6,0.5-0.6h4.9
		c-0.2-0.4-0.4-0.8-0.6-1.1c-0.1-0.1-0.1-0.2-0.1-0.3c0-0.2,0.2-0.4,0.5-0.5c0.1,0,0.2,0,0.3,0c0.3,0,0.5,0.1,0.7,0.4
		c0.2,0.4,0.5,1,0.7,1.5h3.5c0.3-0.5,0.5-1,0.7-1.4c0.1-0.3,0.4-0.5,0.7-0.5c0.1,0,0.2,0,0.3,0c0.4,0.1,0.6,0.2,0.6,0.5
		c0,0.1,0,0.2-0.1,0.2c-0.1,0.3-0.4,0.7-0.6,1.1H226.3z M224.7,4.4c0.3,0,0.5,0.2,0.5,0.5c0,0.3-0.2,0.5-0.5,0.5h-13
		c-0.3,0-0.5-0.2-0.5-0.5c0-0.3,0.2-0.5,0.5-0.5h5.6V3.2h-7c-0.3,0-0.5-0.2-0.5-0.6S210,2,210.3,2h7V1.1c0-0.4,0.2-0.5,0.7-0.5
		s0.7,0.2,0.7,0.5V2h7.3c0.3,0,0.5,0.2,0.5,0.6s-0.2,0.6-0.5,0.6h-7.3v1.2H224.7z M224.7,6.5c1,0,1.6,0.4,1.6,1.4v1.3
		c0,0.3-0.3,0.5-0.7,0.5c-0.5,0-0.7-0.2-0.7-0.5V8.1c0-0.4-0.2-0.5-0.6-0.5h-12.3c-0.4,0-0.6,0.1-0.6,0.5v1.2c0,0.3-0.2,0.5-0.7,0.5
		c-0.4,0-0.7-0.2-0.7-0.5V8c0-1,0.5-1.4,1.5-1.4H224.7z M222.8,10.7c0.9,0,1.4,0.4,1.4,1.2v1.2c0,0.8-0.5,1.2-1.4,1.2h-9.1
		c-0.9,0-1.4-0.4-1.4-1.2v-1.2c0-0.8,0.5-1.2,1.4-1.2H222.8z M213,9.7c-0.3,0-0.4-0.3-0.4-0.5c0-0.3,0.2-0.5,0.4-0.5h10.4
		c0.3,0,0.4,0.2,0.4,0.5c0,0.3-0.2,0.5-0.4,0.5H213z M222.3,13.3c0.4,0,0.5-0.1,0.5-0.4v-0.7c0-0.3-0.2-0.4-0.5-0.4h-8.2
		c-0.3,0-0.5,0.1-0.5,0.4v0.7c0,0.3,0.2,0.4,0.5,0.4H222.3z"/>
</g>
<g class="st1">
	<path class="st0" d="M214.4,22.5h-3.5c-0.3,0-0.5-0.2-0.5-0.5c0-0.3,0.2-0.5,0.5-0.5h3.5v-0.6c0-0.4,0.2-0.5,0.6-0.5
		s0.6,0.2,0.6,0.5v0.6h2.5c1,0,1.4,0.4,1.4,1.3v0.7h0.8c0.3,0,0.4,0.2,0.4,0.5c0,0.3-0.2,0.5-0.4,0.5h-0.8v0.6
		c0,0.9-0.4,1.3-1.4,1.3h-2.5v0.9h3.9c0.3,0,0.5,0.2,0.5,0.5c0,0.3-0.2,0.5-0.4,0.5h-3.9v0.9h4.3c0.3,0,0.5,0.2,0.5,0.5
		c0,0.3-0.2,0.5-0.5,0.5h-10.2c-0.3,0-0.4-0.2-0.4-0.5c0-0.3,0.2-0.5,0.4-0.5h4.6v-0.9h-3.5c-0.3,0-0.4-0.2-0.4-0.5
		c0-0.3,0.2-0.5,0.4-0.5h3.5v-0.9h-3.5c-0.3,0-0.4-0.2-0.4-0.5c0-0.3,0.2-0.5,0.4-0.5h3.5v-1h-4.5c-0.3,0-0.4-0.2-0.4-0.5
		c0-0.3,0.2-0.5,0.4-0.5h4.5V22.5z M220.3,35.9c0.3,0,0.5,0.2,0.5,0.5c0,0,0,0,0,0.1c0,0.3-0.2,0.5-0.5,0.6
		c-3.3,0.4-6.9,0.7-10.1,0.8c0,0,0,0,0,0c-0.3,0-0.6-0.3-0.6-0.6c0,0,0,0,0,0c0-0.3,0.2-0.6,0.5-0.6
		C213.2,36.5,216.9,36.3,220.3,35.9C220.2,35.9,220.2,35.9,220.3,35.9z M218.4,30.7c0.9,0,1.3,0.4,1.3,1.2v2.3
		c0,0.9-0.4,1.2-1.3,1.2h-6.7c-0.9,0-1.3-0.4-1.3-1.2V32c0-0.8,0.4-1.2,1.3-1.2H218.4z M214.5,31.6h-2.3c-0.3,0-0.5,0.1-0.5,0.4v0.6
		h2.8V31.6z M211.7,33.5v0.6c0,0.3,0.2,0.4,0.5,0.4h2.3v-1.1H211.7z M218.4,23.4v-0.5c0-0.3-0.2-0.4-0.5-0.4h-2.2v1H218.4z
		 M215.6,25.4h2.2c0.4,0,0.5-0.1,0.5-0.4v-0.5h-2.8V25.4z M218.5,32.7v-0.6c0-0.3-0.2-0.4-0.5-0.4h-2.4v1H218.5z M215.6,34.6h2.4
		c0.3,0,0.5-0.1,0.5-0.4v-0.6h-2.9V34.6z M222.8,32.9c0,0.3-0.3,0.5-0.7,0.5c-0.4,0-0.7-0.2-0.7-0.5V21.9c0-0.3,0.3-0.5,0.7-0.5
		c0.4,0,0.7,0.2,0.7,0.5V32.9z M226.3,35.8c0,1.2-0.7,1.7-2.1,1.7c-0.6,0-1.3-0.1-1.8-0.2c-0.3-0.1-0.5-0.3-0.5-0.6
		c0-0.1,0-0.1,0-0.2c0.1-0.4,0.3-0.6,0.6-0.6c0.1,0,0.1,0,0.2,0c0.4,0.1,1,0.2,1.4,0.2c0.7,0,0.9-0.1,0.9-0.7V21.1
		c0-0.4,0.3-0.6,0.7-0.6c0.5,0,0.7,0.2,0.7,0.6V35.8z"/>
</g>
<circle class="st0" cx="200.6" cy="19.5" r="2"/>
<path class="st0" d="M20.2,38.6c-5.1,0-9.9-2-13.5-5.6c-3.6-3.6-5.6-8.4-5.6-13.5c0-5.1,2-9.9,5.6-13.5s8.4-5.6,13.5-5.6
	s9.9,2,13.5,5.6s5.6,8.4,5.6,13.5c0,5.1-2,9.9-5.6,13.5C30.1,36.6,25.3,38.6,20.2,38.6z M20.2,1.9C15.5,1.9,11,3.7,7.7,7
	c-3.3,3.3-5.2,7.8-5.2,12.5c0,4.7,1.8,9.1,5.2,12.5c3.3,3.3,7.8,5.2,12.5,5.2s9.1-1.8,12.5-5.2c3.3-3.3,5.2-7.8,5.2-12.5
	c0-4.7-1.8-9.1-5.2-12.5C29.3,3.7,24.9,1.9,20.2,1.9z"/>
<path class="st0" d="M28.4,30l-5.2-8.3c1.5-0.4,2.8-1.3,3.7-2.5c0.9-1.2,1.4-2.6,1.4-4.3c0-1.4-0.3-2.6-1-3.7
	c-0.6-1.1-1.6-2-2.7-2.5c-1.1-0.6-2.4-0.9-3.9-0.9h-5.8c-0.2,0-0.5,0.1-0.6,0.2C14.1,8.3,14,8.5,14,8.8v21.8c0,0.5,0.4,0.9,0.8,0.9
	c0,0,0,0,0.1,0c0.3,0,0.5-0.1,0.7-0.3c0.2-0.2,0.2-0.4,0.2-0.6v-8.4h0v-1.8h0V9.7h4.9c1.1,0,2.1,0.2,3,0.7c0.8,0.4,1.5,1.1,2,1.9
	c0.5,0.8,0.7,1.7,0.7,2.8c0,1-0.2,1.9-0.7,2.7c-0.5,0.8-1.2,1.5-2,1.9c-0.8,0.4-1.6,0.6-2.4,0.6v1.8l5.6,8.9
	c0.1,0.1,0.2,0.3,0.3,0.4c0.1,0.1,0.3,0.1,0.5,0.1c0.3,0,0.6-0.1,0.7-0.2c0.2-0.1,0.3-0.3,0.3-0.5C28.6,30.6,28.5,30.3,28.4,30z"/>
</svg>
